<?xml version="1.0" encoding="UTF-8"?>
<svg xmlns="http://www.w3.org/2000/svg" version="1.1" viewBox="0 0 2000 2000">
  <!-- Generator: Adobe Illustrator 29.5.1, SVG Export Plug-In . SVG Version: 2.1.0 Build 141)  -->
  <defs>
    <style>
      .st0 {
        fill: #fff;
      }

      .st1 {
        fill: #d6b445;
      }

      .st2 {
        fill: #333;
      }
    </style>
  </defs>
  <g id="Layer_1">
    <rect class="st0" width="2000" height="2000"/>
  </g>
  <g id="Layer_2">
    <g>
      <path class="st1" d="M349.7,1884.1c-61.3,0-116.6-11.3-164.4-33.6-53-24.8-95.5-63-123-110.5-27.5-47.6-39.3-103.5-34.2-161.8,4.6-52.5,22.4-106,53.1-159.2L731.5,292.7c30.7-53.1,68.1-95.4,111.3-125.5,47.9-33.5,102.3-51.2,157.2-51.2s109.3,17.7,157.2,51.2c43.2,30.2,80.6,72.4,111.3,125.5l650.3,1126.3c30.7,53.1,48.5,106.7,53.1,159.2,5.1,58.3-6.8,114.2-34.2,161.8-27.5,47.6-70,85.8-123,110.5-47.7,22.3-103,33.6-164.4,33.6H349.7Z"/>
      <path class="st2" d="M349.7,1804.8c-49.6,0-93.7-8.8-130.8-26.2-38.2-17.8-68.6-44.9-87.9-78.3-19.3-33.4-27.6-73.3-23.9-115.3,3.5-40.8,17.9-83.4,42.8-126.4L800.2,332.4c24.8-43,54.4-76.7,88-100.2,34.5-24.2,73.2-36.9,111.8-36.9s77.2,12.8,111.8,36.9c33.6,23.5,63.2,57.2,88,100.2l650.3,1126.3c24.8,43,39.2,85.5,42.8,126.4,3.6,42-4.6,81.9-23.9,115.3-19.3,33.4-49.7,60.5-87.9,78.3-37.1,17.4-81.2,26.1-130.8,26.1H349.7ZM1000,290.4c-41.8,0-84.6,32.6-117.4,89.5L232.3,1506.2c-32.9,56.9-39.7,110.3-18.8,146.4,20.9,36.2,70.5,56.9,136.2,56.9h1300.5c65.7,0,115.4-20.7,136.2-56.9,20.9-36.2,14-89.5-18.8-146.4L1117.4,379.9c-32.9-56.9-75.6-89.5-117.4-89.5Z"/>
      <circle class="st2" cx="1000" cy="1460.9" r="79.3"/>
      <path class="st2" d="M1000,696.4c-62.6,0-113.4,50.8-113.4,113.4s1,17.1,2.8,25.2c7.1,31.2,54.3,409.6,55,413.2,5.3,25.8,28.2,45.3,55.6,45.3s50.3-19.4,55.6-45.3c.8-3.7,48-382.1,55-413.2,1.8-8.1,2.8-16.6,2.8-25.2,0-62.6-50.8-113.4-113.4-113.4Z"/>
    </g>
  </g>
</svg>